<svg preserveAspectRatio="none" overflow="visible" style="display: block;" width="24" height="24" viewBox="0 0 24 24" fill="none" xmlns="http://www.w3.org/2000/svg">
<g id="boxicons:scooter-delivery-filled">
<path id="Vector" d="M20.26 15.47C20.26 15.47 20.19 15.43 20.16 15.42C19.76 15.2 19.32 15.1 18.87 15.05L17.79 8H19.01C19.56 8 20.01 7.55 20.01 7V5C20.01 4.45 19.56 4 19.01 4H17.12C16.71 2.81 15.59 2 14.29 2H12.01V4H14.29C14.5294 3.99969 14.7611 4.0853 14.9427 4.24128C15.1244 4.39727 15.2441 4.61326 15.28 4.85L16.9 15.39C16.44 15.63 16.03 15.96 15.71 16.39C15.57 16.58 15.46 16.78 15.35 16.99H13V7C13 6.45 12.55 6 12 6H3C2.45 6 2 6.45 2 7V11C2 11.55 2.45 12 3 12H3.03C2.4 12.84 2 13.87 2 15V18C2 18.55 2.45 19 3 19H4.05C4.3 20.69 5.74 22 7.5 22C9.26 22 10.7 20.69 10.95 19H15.05C15.3 20.69 16.74 22 18.5 22C20.43 22 22 20.43 22 18.5C22 17.26 21.33 16.1 20.26 15.47ZM4 8H11V10H4V8ZM7.5 20C7.27846 20.0001 7.05965 19.9511 6.85934 19.8564C6.65903 19.7618 6.48221 19.6239 6.34161 19.4527C6.20101 19.2815 6.10013 19.0812 6.04625 18.8663C5.99237 18.6515 5.98682 18.4273 6.03 18.21C6.08 17.98 6.17 17.76 6.3 17.6C6.41 17.45 6.55 17.34 6.7 17.24H6.71C7.01 17.06 7.36 16.99 7.7 17.03H7.76C7.92 17.06 8.09 17.11 8.23 17.19C8.25 17.2 8.27 17.21 8.3 17.22C8.65 17.45 8.89 17.79 8.97 18.18C8.99 18.28 9 18.39 9 18.49C9 19.32 8.33 19.99 7.5 19.99V20ZM18.5 20C18.2211 20.0007 17.9476 19.9236 17.7101 19.7773C17.4727 19.631 17.2809 19.4214 17.1561 19.1719C17.0314 18.9225 16.9788 18.6432 17.0042 18.3655C17.0296 18.0878 17.1321 17.8227 17.3 17.6C17.5189 17.3084 17.8362 17.1061 18.193 17.0307C18.5498 16.9553 18.9218 17.0119 19.24 17.19C19.4713 17.3224 19.6641 17.5129 19.7991 17.7427C19.9342 17.9724 20.0069 18.2335 20.01 18.5C20.01 19.33 19.34 20 18.51 20H18.5Z" fill="#474747"/>
</g>
</svg>
